<svg width="3252" height="512" viewBox="0 0 3252 512" xmlns="http://www.w3.org/2000/svg"><title>logo</title><g fill="none" fill-rule="evenodd"><g fill="#FFFFFE"><path d="M312.383 284.105V224.95l-51.396-29.57-51.396 29.57v59.155l51.394 29.583 51.398-29.583"/><path d="M466.058 137.471c-3.983-7.21-9.929-13.182-17.746-17.678-54.531-31.377-109.065-62.75-163.595-94.129-15.165-8.721-32.957-8.347-47.41-.032-9.262 5.33-18.527 10.663-27.796 15.995v101.866l51.474-29.617 122.459 70.456V325.26l-122.459 70.457-122.467-70.457v-.212V81.6l-65.246 37.546C58.1 127.875 50 136.515 50 153.632v194.844c0 8.902 2.382 16.915 6.232 23.693 4.312 7.586 10.467 13.622 17.282 17.542 54.304 31.244 108.606 62.495 162.916 93.737 15.938 9.175 33.09 9.216 48.94.098 54.435-31.324 108.877-62.647 163.31-93.967 15.245-8.77 23.285-22.689 23.285-40.388V161.938c0-9.214-2.02-17.43-5.907-24.467"/></g><path d="M771.66 260c0 93.48-67.64 133-136.04 133H556.2V127h83.22c76 0 132.24 35.72 132.24 133zm-54.72 0c0-54.34-23.18-81.32-79.42-81.32H609.4v162.64h26.22c55.86 0 81.32-32.68 81.32-81.32zm264.92 33.44c0 61.18-38.38 103.74-90.44 103.74-52.06 0-90.06-42.56-90.06-103.74 0-61.18 38-104.12 90.06-104.12s90.44 42.94 90.44 104.12zm-53.2 0c0-30.4-12.16-53.58-37.24-53.58-25.08 0-36.86 22.8-36.86 53.58 0 30.78 11.78 53.2 36.86 53.2s37.24-25.46 37.24-53.2zm254.28 59.28c-19.38 25.84-42.18 44.46-81.7 44.46-52.06 0-93.48-42.56-93.48-103.74 0-61.18 40.28-104.12 95.76-104.12 38 0 62.32 18.62 79.04 44.08l-34.58 34.96c-11.78-16.72-24.32-28.5-45.6-28.5-25.08 0-41.42 20.9-41.42 53.58 0 31.92 16.34 53.2 41.42 53.2 20.52 0 33.44-9.12 47.12-25.46l33.44 31.54zM1388.58 393h-52.44v-13.3c-9.12 9.5-25.84 17.48-46.74 17.48-50.92 0-73.72-34.96-73.72-91.2V193.5h52.44v107.92c0 35.72 12.16 46.36 33.82 46.36s34.2-10.64 34.2-45.22V193.5h52.44V393zm332.18 0h-52.44V285.08c0-35.72-10.26-46.36-31.92-46.36-21.66 0-32.3 10.64-32.3 45.22V393h-52.44V285.08c0-35.72-10.26-46.36-31.92-46.36-21.66 0-32.3 10.64-32.3 45.22V393H1435V193.5h52.44v13.3c9.12-9.5 22.8-17.48 43.7-17.48 25.46 0 40.28 7.22 55.1 25.46 13.68-14.06 30.4-25.46 63.46-25.46 50.92 0 71.06 34.96 71.06 91.2V393zm207.16-99.56c0 7.6-.38 12.92-.76 16.72h-119.32c1.9 27.36 22.04 37.62 41.04 37.62 14.44 0 26.6-5.32 34.2-14.06l37.24 31.16c-15.96 20.52-44.84 32.3-71.44 32.3-57.38 0-93.86-40.66-93.86-103.74 0-61.18 38.38-104.12 88.92-104.12 53.2 0 83.98 47.12 83.98 104.12zm-50.92-22.8c-1.52-17.86-12.16-35.72-35.72-35.72-19 0-30.78 15.58-32.68 35.72h68.4zM2138.12 393h-52.44V285.08c0-35.72-12.16-46.36-33.82-46.36s-34.2 10.64-34.2 45.22V393h-52.44V193.5h52.44v13.3c9.12-9.5 25.84-17.48 46.74-17.48 50.92 0 73.72 34.96 73.72 91.2V393zm163.46-61.18l-7.6 53.2c-8.74 6.84-24.32 12.16-40.66 12.16-32.3 0-53.2-25.08-53.2-60.04V242.9h-33.44v-49.4h33.44v-51.3l52.44-26.22v77.52h47.88v49.4h-47.88v80.18c0 19 6.84 23.94 19.38 23.94 9.5 0 16.72-4.18 29.64-15.2zM2508.36 393h-52.44v-13.3c-9.5 9.88-26.22 17.48-44.84 17.48-37.24 0-74.48-22.8-74.48-71.06 0-44.08 35.72-66.12 80.94-66.12 18.24 0 30.02 3.8 38.38 7.98v-9.88c0-14.06-9.5-25.46-28.5-25.46-23.94 0-36.48 3.42-54.72 13.3l-20.14-36.48c23.18-13.3 42.56-20.14 74.86-20.14 48.26 0 80.94 25.08 80.94 69.92V393zm-52.44-58.52V309.4c-9.12-5.7-17.86-8.36-36.48-8.36-19.76 0-30.4 9.12-30.4 25.08 0 14.06 7.98 26.6 30.4 26.6 17.1 0 30.78-8.74 36.48-18.24zm215.9-2.66l-7.6 53.2c-8.74 6.84-24.32 12.16-40.66 12.16-32.3 0-53.2-25.08-53.2-60.04V242.9h-33.44v-49.4h33.44v-51.3l52.44-26.22v77.52h47.88v49.4h-47.88v80.18c0 19 6.84 23.94 19.38 23.94 9.5 0 16.72-4.18 29.64-15.2zm102.66-184.68c0 16.34-13.68 30.02-30.02 30.02s-30.02-13.68-30.02-30.02 13.68-30.02 30.02-30.02 30.02 13.68 30.02 30.02zm-3.8 245.86h-52.44V193.5h52.44V393zm218.56-99.56c0 61.18-38.38 103.74-90.44 103.74-52.06 0-90.06-42.56-90.06-103.74 0-61.18 38-104.12 90.06-104.12s90.44 42.94 90.44 104.12zm-53.2 0c0-30.4-12.16-53.58-37.24-53.58-25.08 0-36.86 22.8-36.86 53.58 0 30.78 11.78 53.2 36.86 53.2s37.24-25.46 37.24-53.2zM3198.3 393h-52.44V285.08c0-35.72-12.16-46.36-33.82-46.36s-34.2 10.64-34.2 45.22V393h-52.44V193.5h52.44v13.3c9.12-9.5 25.84-17.48 46.74-17.48 50.92 0 73.72 34.96 73.72 91.2V393z" fill="#FFF"/></g></svg>